<?xml version="1.0" encoding="UTF-8" standalone="no"?>
<!-- Created with Inkscape (http://www.inkscape.org/) -->

<svg
   version="1.1"
   id="svg132"
   width="128"
   height="128"
   viewBox="0 0 128 128"
   sodipodi:docname="icon.sgv"
   inkscape:version="1.2.2 (b0a84865, 2022-12-01)"
   xmlns:inkscape="http://www.inkscape.org/namespaces/inkscape"
   xmlns:sodipodi="http://sodipodi.sourceforge.net/DTD/sodipodi-0.dtd"
   xmlns="http://www.w3.org/2000/svg"
   xmlns:svg="http://www.w3.org/2000/svg">
  <defs
     id="defs136" />
  <sodipodi:namedview
     id="namedview134"
     pagecolor="#505050"
     bordercolor="#eeeeee"
     borderopacity="1"
     inkscape:showpageshadow="0"
     inkscape:pageopacity="0"
     inkscape:pagecheckerboard="0"
     inkscape:deskcolor="#505050"
     showgrid="false"
     inkscape:zoom="2.2202311"
     inkscape:cx="17.565739"
     inkscape:cy="101.566"
     inkscape:window-width="1920"
     inkscape:window-height="1027"
     inkscape:window-x="0"
     inkscape:window-y="25"
     inkscape:window-maximized="1"
     inkscape:current-layer="g138" />
  <g
     inkscape:groupmode="layer"
     inkscape:label="Image"
     id="g138">
    <path
       id="path11588"
       style="fill:#09b0ff;fill-opacity:1;stroke:none;stroke-width:6.70195;stroke-linecap:round;stroke-linejoin:round;stroke-dasharray:none;stroke-opacity:1"
       d="m 63.999955,4.1161943 a 47.171528,26.119476 0 0 0 -47.171481,26.1199137 47.171528,26.119476 0 0 0 2.173551,7.683675 47.171528,26.119476 0 0 0 -2.173551,7.684329 47.171528,26.119476 0 0 0 1.109356,5.375303 47.171528,26.119476 0 0 0 -1.109356,5.375954 47.171528,26.119476 0 0 0 2.14868,7.644405 47.171528,26.119476 0 0 0 -2.14868,7.644407 47.171528,26.119476 0 0 0 2.172898,7.684327 47.171528,26.119476 0 0 0 -2.172898,7.683675 47.171528,26.119476 0 0 0 1.109356,5.375954 47.171528,26.119476 0 0 0 -1.109356,5.375955 47.171528,26.119476 0 0 0 47.171481,26.119258 47.171528,26.119476 0 0 0 47.171475,-26.119258 47.171528,26.119476 0 0 0 -1.06616,-5.49769 47.171528,26.119476 0 0 0 1.06616,-5.254219 47.171528,26.119476 0 0 0 -2.13428,-7.748467 47.171528,26.119476 0 0 0 2.13428,-7.619535 47.171528,26.119476 0 0 0 -2.11137,-7.706585 47.171528,26.119476 0 0 0 2.11137,-7.582227 47.171528,26.119476 0 0 0 -1.06616,-5.497034 47.171528,26.119476 0 0 0 1.06616,-5.254223 47.171528,26.119476 0 0 0 -2.13428,-7.749122 47.171528,26.119476 0 0 0 2.13428,-7.618882 A 47.171528,26.119476 0 0 0 63.999955,4.1161943 Z" />
    <path
       id="path8562"
       style="fill:none;fill-opacity:1;stroke:#ffffff;stroke-width:9.07195;stroke-linecap:round;stroke-linejoin:round;stroke-dasharray:none;stroke-opacity:1"
       d="m 109.41487,4.5356491 c 0,7.2496609 8e-5,9.5205169 -7.46121,17.5530309 -16.661486,17.93706 -21.100339,30.612342 -22.454998,37.675784 3.057477,6.831405 9.828597,9.982725 15.866951,13.860224 6.454207,1.142598 7.273767,4.56934 8.676907,7.75959 l 0.54043,2.124122 c 3.41868,3.754468 7.27896,5.12234 12.13358,1.115258 l 6.7478,-4.626372 -2.75092,-1.858838 c -3.22474,-3.59613 -3.09218,-9.142329 -14.44249,-8.018654 -1.96488,-4.132048 4.11989,-13.720787 8.29773,-19.976982 2.02805,-3.036932 1.3066,-4.419355 0.84036,-6.62453 1.55745,-23.52715 -0.47789,-35.8473186 -5.99414,-38.9826329 z M 24.126879,13.094088 c 0.255434,16.80893 5.928995,33.910754 20.980259,51.519428 L 69.68615,85.05267 33.291389,100.10738 4.5359288,108.47192 v 2.71203 c 11.5816872,-2.25857 22.6361602,-8.22213 34.8746502,-5.86552 -9.72843,6.95203 -23.167811,9.89231 -34.8746502,14.70559 v 3.4402 L 31.233839,113.83243 68.477472,99.797875 c 16.787457,4.506305 30.814646,3.044585 40.937398,-6.858725 -5.37231,0.601125 -9.04285,-4.22442 -11.707327,-10.426722 z" />
    <path
       id="rect2108"
       style="fill:#c60000;fill-opacity:1;stroke-width:5.66995;stroke-linecap:round;stroke-linejoin:round"
       d="m 104.04258,81.38429 c 6.47251,-0.465427 11.98942,-3.046114 19.42167,-1.387084 l -6.74777,4.626467 c -4.85462,4.007087 -8.71485,2.639275 -12.13354,-1.115198 z"
       sodipodi:nodetypes="ccccc"
       inkscape:label="rect2108" />
    <path
       id="rect523"
       style="fill:#005eb4;fill-opacity:1;stroke-width:5.66995;stroke-linecap:round;stroke-linejoin:round"
       d="m 106.27099,70.119751 c 11.35032,-1.123675 11.2176,4.42266 14.44234,8.018795 l 2.75092,1.85866 c -8.61007,-0.693253 -12.90507,4.802909 -19.42167,1.387084 -1.40314,-3.190254 -2.22283,-6.617037 -8.677042,-7.759637 1.905143,-20.596294 16.664852,-30.471478 20.043532,-30.106351 0.46624,2.205175 1.18755,3.587598 -0.8405,6.624535 -4.17784,6.256197 -10.26246,15.844862 -8.29758,19.976914 z"
       sodipodi:nodetypes="ccccccsc" />
    <path
       id="path5668"
       style="fill:#000000;fill-opacity:1;stroke-width:11.8222;stroke-linecap:round;stroke-linejoin:round"
       d="m 107.9101,77.198611 c 0.20597,-1.3708 0.53733,-2.144138 2.21408,-1.754878 1.19131,0.421903 2.58029,1.552135 2.73755,2.304688 -0.4051,1.49249 -1.13752,1.987287 -2.43695,2.09331 -1.16109,-0.185775 -2.7005,-1.34936 -2.51468,-2.64312 z"
       sodipodi:nodetypes="ccccc" />
    <path
       id="rect4423"
       style="fill:#ebe8e3;fill-opacity:1;stroke-width:5.66995;stroke-linecap:round;stroke-linejoin:round"
       d="m 108.41071,77.354616 c -0.0548,-0.731893 0.28415,-1.038145 1.08072,-0.849675 0.56594,0.204275 0.85864,0.519702 0.93335,0.884072 -0.19245,0.722628 -0.6599,0.95765 -1.27722,1.008983 -0.45797,-0.08421 -0.72085,-0.41059 -0.73685,-1.04338 z"
       sodipodi:nodetypes="ccccc" />
    <path
       id="rect8068"
       style="fill:#000000;fill-opacity:1;stroke-width:5.66995;stroke-linecap:round;stroke-linejoin:round"
       d="m 79.498594,59.764352 c 1.354662,-7.06345 5.793505,-19.738512 22.455006,-37.675591 7.46129,-8.032521 7.46129,-10.30353 7.46129,-17.5531984 5.51626,3.1353176 7.55162,15.4555614 5.99418,38.9827394 L 95.365538,73.624653 C 89.327184,69.747151 82.556076,66.595764 79.498594,59.764352 Z"
       sodipodi:nodetypes="cscccc" />
    <path
       id="rect8071"
       style="fill:#000000;fill-opacity:1;stroke-width:5.66995;stroke-linecap:round;stroke-linejoin:round"
       d="M 24.126838,13.093979 97.707583,82.512463 C 100.37206,88.714768 104.04258,93.5402 109.41489,92.939072 99.292136,102.84239 85.264999,104.30413 68.477527,99.797815 L 31.233904,113.8325 4.5359288,123.46422 v -3.44014 c 11.7068522,-4.8133 25.1461632,-7.75373 34.8746022,-14.70576 -12.238499,-2.35662 -23.292904,3.60715 -34.8746022,5.86573 v -2.71208 L 33.291356,100.10739 50.40099,98.127092 74.007239,88.64584 45.107176,64.613436 C 30.055894,47.004745 24.382275,29.902928 24.126838,13.093979 Z"
       sodipodi:nodetypes="ccccccccccccccc" />
    <path
       id="rect8438"
       style="fill:#005eb4;fill-opacity:1;stroke-width:5.66995;stroke-linecap:round;stroke-linejoin:round"
       d="M 33.291356,100.10739 69.686247,85.05263 74.007239,88.64584 50.40099,98.127092 Z"
       sodipodi:nodetypes="ccccc" />
  </g>
</svg>
